<?xml version="1.0" encoding="UTF-8" standalone="no"?><!DOCTYPE svg PUBLIC "-//W3C//DTD SVG 1.1//EN" "http://www.w3.org/Graphics/SVG/1.1/DTD/svg11.dtd"><svg width="100%" height="100%" viewBox="0 0 758 151" version="1.1" xmlns="http://www.w3.org/2000/svg" xmlns:xlink="http://www.w3.org/1999/xlink" xml:space="preserve" xmlns:serif="http://www.serif.com/" style="fill-rule:evenodd;clip-rule:evenodd;stroke-linejoin:round;stroke-miterlimit:2;"><g id="logo-filled"><g id="icon"><g id="icon1" serif:id="icon"><path d="M152.688,121.276c0.762,-0.302 1.263,-1.039 1.263,-1.859c-0,-10.169 -0,-74.376 -0,-88.959c-0,-0.663 -0.328,-1.282 -0.876,-1.654c-0.548,-0.373 -1.245,-0.45 -1.861,-0.206c-12.205,4.836 -61.442,24.345 -69.975,27.726c-0.763,0.302 -1.264,1.039 -1.264,1.859c0,10.169 0,74.376 0,88.959c0,0.663 0.329,1.282 0.876,1.654c0.548,0.373 1.245,0.45 1.861,0.206c12.205,-4.836 61.443,-24.345 69.976,-27.726Z" style="fill:#4c9aee;"/><path d="M23.676,31.098c-0.78,-0.309 -1.293,-1.062 -1.295,-1.901c-0.001,-0.84 0.509,-1.595 1.289,-1.907c12.753,-5.102 47.001,-18.802 52.543,-21.019c0.489,-0.196 1.035,-0.196 1.524,0.001c5.537,2.221 39.738,15.94 52.472,21.048c0.779,0.313 1.288,1.068 1.287,1.907c-0.002,0.839 -0.515,1.592 -1.295,1.901c-12.746,5.05 -46.957,18.605 -52.471,20.79c-0.485,0.192 -1.025,0.192 -1.509,-0c-5.519,-2.187 -39.781,-15.762 -52.545,-20.82Z" style="fill:#4c9aee;"/><path d="M1.263,121.276c-0.762,-0.302 -1.263,-1.039 -1.263,-1.859c-0,-10.169 -0,-74.376 -0,-88.959c0,-0.663 0.328,-1.282 0.876,-1.654c0.548,-0.373 1.245,-0.45 1.861,-0.206c12.205,4.836 61.442,24.345 69.975,27.726c0.763,0.302 1.263,1.039 1.263,1.859c0,10.169 0,74.376 0,88.959c0,0.663 -0.328,1.282 -0.876,1.654c-0.548,0.373 -1.244,0.45 -1.86,0.206c-12.205,-4.836 -61.443,-24.345 -69.976,-27.726Z" style="fill:#4c9aee;"/></g></g><g id="type"><path d="M255.656,112.176c6.144,0 11.784,-1.464 16.92,-4.392c5.136,-2.928 9.336,-6.84 12.6,-11.736l12.528,9.36c-4.8,6.528 -10.824,11.712 -18.072,15.552c-7.248,3.84 -15.24,5.76 -23.976,5.76c-7.2,-0 -13.968,-1.392 -20.304,-4.176c-6.336,-2.784 -11.856,-6.552 -16.56,-11.304c-4.704,-4.752 -8.424,-10.32 -11.16,-16.704c-2.736,-6.384 -4.104,-13.224 -4.104,-20.52c-0,-7.296 1.368,-14.136 4.104,-20.52c2.736,-6.384 6.456,-11.952 11.16,-16.704c4.704,-4.752 10.224,-8.52 16.56,-11.304c6.336,-2.784 13.104,-4.176 20.304,-4.176c8.736,0 16.728,1.92 23.976,5.76c7.248,3.84 13.272,9.024 18.072,15.552l-12.528,9.36c-3.264,-4.896 -7.464,-8.808 -12.6,-11.736c-5.136,-2.928 -10.776,-4.392 -16.92,-4.392c-4.992,-0 -9.672,1.008 -14.04,3.024c-4.368,2.016 -8.184,4.752 -11.448,8.208c-3.264,3.456 -5.856,7.488 -7.776,12.096c-1.92,4.608 -2.88,9.552 -2.88,14.832c-0,5.28 0.96,10.224 2.88,14.832c1.92,4.608 4.512,8.64 7.776,12.096c3.264,3.456 7.08,6.192 11.448,8.208c4.368,2.016 9.048,3.024 14.04,3.024Z" style="fill:#4c9aee;fill-rule:nonzero;"/><path d="M353.744,50.832c5.28,-0 10.248,1.008 14.904,3.024c4.656,2.016 8.736,4.752 12.24,8.208c3.504,3.456 6.264,7.536 8.28,12.24c2.016,4.704 3.024,9.696 3.024,14.976l-0,37.296l-14.976,0l-0,-7.056c-3.264,2.496 -6.864,4.464 -10.8,5.904c-3.936,1.44 -8.16,2.16 -12.672,2.16c-5.28,0 -10.248,-1.008 -14.904,-3.024c-4.656,-2.016 -8.712,-4.752 -12.168,-8.208c-3.456,-3.456 -6.192,-7.512 -8.208,-12.168c-2.016,-4.656 -3.024,-9.624 -3.024,-14.904c-0,-5.28 1.008,-10.272 3.024,-14.976c2.016,-4.704 4.752,-8.784 8.208,-12.24c3.456,-3.456 7.512,-6.192 12.168,-8.208c4.656,-2.016 9.624,-3.024 14.904,-3.024Zm-0,61.776c3.264,0 6.312,-0.624 9.144,-1.872c2.832,-1.248 5.304,-2.928 7.416,-5.04c2.112,-2.112 3.792,-4.584 5.04,-7.416c1.248,-2.832 1.872,-5.832 1.872,-9c-0,-3.264 -0.624,-6.312 -1.872,-9.144c-1.248,-2.832 -2.928,-5.304 -5.04,-7.416c-2.112,-2.112 -4.584,-3.792 -7.416,-5.04c-2.832,-1.248 -5.88,-1.872 -9.144,-1.872c-3.264,0 -6.312,0.624 -9.144,1.872c-2.832,1.248 -5.304,2.928 -7.416,5.04c-2.112,2.112 -3.792,4.584 -5.04,7.416c-1.248,2.832 -1.872,5.88 -1.872,9.144c-0,3.168 0.624,6.168 1.872,9c1.248,2.832 2.928,5.304 5.04,7.416c2.112,2.112 4.584,3.792 7.416,5.04c2.832,1.248 5.88,1.872 9.144,1.872Z" style="fill:#4c9aee;fill-rule:nonzero;"/><path d="M451.96,50.832c5.28,-0 10.224,0.984 14.832,2.952c4.608,1.968 8.64,4.68 12.096,8.136c3.456,3.456 6.168,7.488 8.136,12.096c1.968,4.608 2.952,9.552 2.952,14.832c-0,5.28 -0.984,10.224 -2.952,14.832c-1.968,4.608 -4.68,8.64 -8.136,12.096c-3.456,3.456 -7.488,6.168 -12.096,8.136c-4.608,1.968 -9.552,2.952 -14.832,2.952c-5.28,0 -10.224,-0.984 -14.832,-2.952c-4.608,-1.968 -8.64,-4.68 -12.096,-8.136c-3.456,-3.456 -6.168,-7.488 -8.136,-12.096c-1.968,-4.608 -2.952,-9.552 -2.952,-14.832l-0,-88.848l14.688,-0l-0,58.752c3.264,-2.496 6.864,-4.44 10.8,-5.832c3.936,-1.392 8.112,-2.088 12.528,-2.088Zm-0,61.2c3.168,-0 6.168,-0.6 9,-1.8c2.832,-1.2 5.304,-2.856 7.416,-4.968c2.112,-2.112 3.768,-4.584 4.968,-7.416c1.2,-2.832 1.8,-5.832 1.8,-9c-0,-3.168 -0.6,-6.168 -1.8,-9c-1.2,-2.832 -2.856,-5.304 -4.968,-7.416c-2.112,-2.112 -4.584,-3.768 -7.416,-4.968c-2.832,-1.2 -5.832,-1.8 -9,-1.8c-3.168,-0 -6.168,0.6 -9,1.8c-2.832,1.2 -5.304,2.856 -7.416,4.968c-2.112,2.112 -3.792,4.56 -5.04,7.344c-1.248,2.784 -1.872,5.76 -1.872,8.928l-0,0.144c-0,3.168 0.624,6.168 1.872,9c1.248,2.832 2.928,5.304 5.04,7.416c2.112,2.112 4.584,3.768 7.416,4.968c2.832,1.2 5.832,1.8 9,1.8Z" style="fill:#4c9aee;fill-rule:nonzero;"/><path d="M509.032,50.688l14.688,-0l-0,76.032l-14.688,0l-0,-76.032Zm-0,-7.776l-0,-14.688l14.688,-0l-0,14.688l-14.688,0Z" style="fill:#4c9aee;fill-rule:nonzero;"/><path d="M596.328,55.728c4.608,3.072 8.256,7.032 10.944,11.88c2.688,4.848 4.032,10.152 4.032,15.912l-0,43.344l-14.976,0l-0,-43.344c-0,-2.496 -0.48,-4.872 -1.44,-7.128c-0.96,-2.256 -2.28,-4.224 -3.96,-5.904c-1.68,-1.68 -3.624,-3 -5.832,-3.96c-2.208,-0.96 -4.56,-1.44 -7.056,-1.44c-2.496,-0 -4.872,0.48 -7.128,1.44c-2.256,0.96 -4.2,2.28 -5.832,3.96c-1.632,1.68 -2.928,3.648 -3.888,5.904c-0.96,2.256 -1.44,4.632 -1.44,7.128l-0,43.344l-14.976,0l-0,-76.608l14.976,0l-0,5.472c2.592,-1.728 5.448,-3.072 8.568,-4.032c3.12,-0.96 6.36,-1.44 9.72,-1.44c3.36,0 6.6,0.48 9.72,1.44c3.12,0.96 5.976,2.304 8.568,4.032Z" style="fill:#4c9aee;fill-rule:nonzero;"/><path d="M706.656,93.744l-60.336,0c0.576,2.592 1.56,5.016 2.952,7.272c1.392,2.256 3.096,4.2 5.112,5.832c2.016,1.632 4.272,2.904 6.768,3.816c2.496,0.912 5.136,1.368 7.92,1.368c3.36,0 6.504,-0.672 9.432,-2.016c2.928,-1.344 5.496,-3.216 7.704,-5.616l17.424,0c-0.576,1.44 -1.272,2.808 -2.088,4.104c-0.816,1.296 -1.704,2.568 -2.664,3.816c-3.456,4.416 -7.776,7.944 -12.96,10.584c-5.184,2.64 -10.8,3.96 -16.848,3.96c-5.28,0 -10.224,-0.984 -14.832,-2.952c-4.608,-1.968 -8.64,-4.68 -12.096,-8.136c-3.456,-3.456 -6.168,-7.488 -8.136,-12.096c-1.968,-4.608 -2.952,-9.552 -2.952,-14.832c-0,-5.28 0.984,-10.224 2.952,-14.832c1.968,-4.608 4.68,-8.64 8.136,-12.096c3.456,-3.456 7.488,-6.168 12.096,-8.136c4.608,-1.968 9.552,-2.952 14.832,-2.952c6.048,0 11.664,1.32 16.848,3.96c5.184,2.64 9.504,6.216 12.96,10.728c3.168,3.84 5.472,8.352 6.912,13.536c0.864,3.072 1.296,6.336 1.296,9.792c-0,1.728 -0.144,3.36 -0.432,4.896Zm-37.584,-28.08c-4.704,0 -8.904,1.224 -12.6,3.672c-3.696,2.448 -6.504,5.688 -8.424,9.72l42.048,0c-0.48,-0.768 -0.936,-1.536 -1.368,-2.304c-0.432,-0.768 -0.888,-1.488 -1.368,-2.16c-2.208,-2.784 -4.896,-4.968 -8.064,-6.552c-3.168,-1.584 -6.576,-2.376 -10.224,-2.376Z" style="fill:#4c9aee;fill-rule:nonzero;"/><path d="M757.464,29.808l-0,14.688l-13.824,-0l-0,82.368l-14.832,0l-0,-82.368l-13.968,-0l-0,-14.688l13.968,-0l-0,-28.368l14.832,-0l-0,28.368l13.824,-0Z" style="fill:#4c9aee;fill-rule:nonzero;"/></g></g></svg>