<?xml version="1.0" encoding="UTF-8" standalone="no"?><!DOCTYPE svg PUBLIC "-//W3C//DTD SVG 1.1//EN" "http://www.w3.org/Graphics/SVG/1.1/DTD/svg11.dtd"><svg width="100%" height="100%" viewBox="0 0 161 153" version="1.1" xmlns="http://www.w3.org/2000/svg" xmlns:xlink="http://www.w3.org/1999/xlink" xml:space="preserve" xmlns:serif="http://www.serif.com/" style="fill-rule:evenodd;clip-rule:evenodd;stroke-linejoin:round;stroke-miterlimit:2;"><g><path d="M21.676,22.77l-13.466,-5.335c-1.848,-0.732 -3.938,-0.502 -5.582,0.615c-1.644,1.117 -2.628,2.976 -2.628,4.963l-0,93.658c-0,2.461 1.502,4.672 3.79,5.578l74.263,29.425l0.028,0.011l0.011,0.004l0.048,0.019l0.028,0.011l0.012,0.004l0.045,0.017l0.03,0.011l0.014,0.005l0.042,0.015l0.022,0.008l0.009,0.003l0.016,0.005l0.039,0.013l0.022,0.007l0.011,0.004l0.019,0.006l0.034,0.011l0.022,0.007l0.013,0.004l0.021,0.006l0.031,0.01l0.02,0.006l0.016,0.005l0.024,0.006l0.027,0.008l0.019,0.006l0.019,0.005l0.026,0.007l0.024,0.006l0.018,0.005l0.021,0.006l0.028,0.007l0.021,0.005l0.016,0.004l0.024,0.006l0.029,0.007l0.019,0.004l0.015,0.004l0.026,0.006l0.031,0.007l0.016,0.003l0.014,0.003l0.029,0.007l0.031,0.006l0.015,0.003l0.013,0.003l0.03,0.006l0.033,0.006l0.012,0.002l0.013,0.003l0.032,0.006l0.033,0.005l0.011,0.002l0.012,0.002l0.034,0.006l0.033,0.005l0.057,0.009l0.033,0.005l0.057,0.008l0.032,0.004l0.011,0.001l0.012,0.002l0.036,0.004l0.031,0.004l0.011,0.001l0.013,0.001l0.035,0.004l0.03,0.003l0.012,0.001l0.014,0.001l0.035,0.004l0.028,0.002l0.013,0.001l0.015,0.001l0.034,0.003l0.028,0.002l0.013,0.001l0.017,0l0.033,0.003l0.026,0.001l0.014,0.001l0.019,0l0.031,0.002l0.025,0.001l0.016,0l0.021,0.001l0.029,0.001l0.023,0l0.017,0.001l0.023,0l0.028,0.001l0.021,-0l0.019,-0l0.025,-0l0.025,-0l0.019,-0l0.021,-0l0.028,-0.001l0.023,-0l0.017,-0.001l0.023,0l0.029,-0.001l0.021,-0.001l0.016,-0l0.025,-0.001l0.031,-0.002l0.019,-0l0.014,-0.001l0.026,-0.001l0.033,-0.003l0.017,-0l0.013,-0.001l0.028,-0.002l0.034,-0.003l0.015,-0.001l0.013,-0.001l0.028,-0.002l0.035,-0.004l0.014,-0.001l0.012,-0.001l0.03,-0.003l0.035,-0.004l0.013,-0.001l0.011,-0.001l0.031,-0.004l0.036,-0.004l0.012,-0.002l0.011,-0.001l0.032,-0.004l0.035,-0.005l0.055,-0.008l0.035,-0.005l0.055,-0.009l0.034,-0.006l0.012,-0.002l0.011,-0.002l0.033,-0.005l0.032,-0.006l0.013,-0.003l0.012,-0.002l0.033,-0.006l0.03,-0.006l0.013,-0.003l0.015,-0.003l0.031,-0.006l0.029,-0.007l0.014,-0.003l0.016,-0.003l0.031,-0.007l0.026,-0.006l0.015,-0.004l0.019,-0.004l0.029,-0.007l0.024,-0.006l0.016,-0.004l0.022,-0.005l0.027,-0.007l0.021,-0.006l0.018,-0.005l0.024,-0.006l0.026,-0.007l0.019,-0.005l0.019,-0.006l0.027,-0.008l0.024,-0.006l0.016,-0.005l0.02,-0.006l0.031,-0.01l0.021,-0.006l0.013,-0.004l0.022,-0.007l0.034,-0.011l0.019,-0.006l0.011,-0.004l0.022,-0.007l0.039,-0.013l0.016,-0.005l0.009,-0.003l0.022,-0.008l0.042,-0.015l0.044,-0.016l0.045,-0.017l0.04,-0.015l0.048,-0.019l0.039,-0.015l74.262,-29.425c2.288,-0.906 3.79,-3.117 3.79,-5.578l-0,-93.658c0,-1.987 -0.984,-3.846 -2.628,-4.963c-1.644,-1.117 -3.734,-1.347 -5.582,-0.615l-13.465,5.335l-56.405,-22.348c-1.42,-0.563 -3,-0.563 -4.42,-0l-56.405,22.348Zm52.615,33.755l-0,80.751l-62.291,-24.681l-0,-80.751l62.291,24.681Zm12,-0.001l62.29,-24.68l0,80.751l-62.29,24.681l-0,-80.752Zm-48.327,-27.3l42.327,16.77l42.326,-16.77l-42.326,-16.77l-42.327,16.77Z" style="fill:#4c9aee;"/></g></svg>