<?xml version="1.0" encoding="UTF-8" standalone="no"?><!DOCTYPE svg PUBLIC "-//W3C//DTD SVG 1.1//EN" "http://www.w3.org/Graphics/SVG/1.1/DTD/svg11.dtd"><svg width="100%" height="100%" viewBox="0 0 154 144" version="1.1" xmlns="http://www.w3.org/2000/svg" xmlns:xlink="http://www.w3.org/1999/xlink" xml:space="preserve" xmlns:serif="http://www.serif.com/" style="fill-rule:evenodd;clip-rule:evenodd;stroke-linejoin:round;stroke-miterlimit:2;"><g id="icon"><g id="icon1" serif:id="icon"><path d="M152.688,115.152c0.762,-0.302 1.263,-1.039 1.263,-1.86c-0,-10.169 -0,-74.376 -0,-88.958c-0,-0.663 -0.328,-1.282 -0.876,-1.655c-0.548,-0.372 -1.245,-0.449 -1.861,-0.205c-12.205,4.836 -61.442,24.345 -69.975,27.726c-0.763,0.302 -1.264,1.039 -1.264,1.859c0,10.169 0,74.376 0,88.959c0,0.662 0.329,1.282 0.876,1.654c0.548,0.373 1.245,0.449 1.861,0.205c12.205,-4.835 61.443,-24.344 69.976,-27.725Z" style="fill:#4c9aee;"/><path d="M23.676,24.974c-0.78,-0.309 -1.293,-1.062 -1.295,-1.902c-0.001,-0.839 0.509,-1.594 1.289,-1.906c12.753,-5.102 47.001,-18.802 52.543,-21.019c0.489,-0.196 1.035,-0.196 1.524,0c5.537,2.222 39.738,15.941 52.472,21.049c0.779,0.313 1.288,1.068 1.287,1.907c-0.002,0.839 -0.515,1.592 -1.295,1.901c-12.746,5.05 -46.957,18.605 -52.471,20.789c-0.485,0.193 -1.025,0.193 -1.509,0c-5.519,-2.186 -39.781,-15.761 -52.545,-20.819Z" style="fill:#4c9aee;"/><path d="M1.263,115.152c-0.762,-0.302 -1.263,-1.039 -1.263,-1.86c-0,-10.169 -0,-74.376 -0,-88.958c0,-0.663 0.328,-1.282 0.876,-1.655c0.548,-0.372 1.245,-0.449 1.861,-0.205c12.205,4.836 61.442,24.345 69.975,27.726c0.763,0.302 1.263,1.039 1.263,1.859c0,10.169 0,74.376 0,88.959c0,0.662 -0.328,1.282 -0.876,1.654c-0.548,0.373 -1.244,0.449 -1.86,0.205c-12.205,-4.835 -61.443,-24.344 -69.976,-27.725Z" style="fill:#4c9aee;"/></g></g></svg>