<?xml version="1.0" encoding="UTF-8" standalone="no"?><!DOCTYPE svg PUBLIC "-//W3C//DTD SVG 1.1//EN" "http://www.w3.org/Graphics/SVG/1.1/DTD/svg11.dtd"><svg width="100%" height="100%" viewBox="0 0 3262 634" version="1.1" xmlns="http://www.w3.org/2000/svg" xmlns:xlink="http://www.w3.org/1999/xlink" xml:space="preserve" xmlns:serif="http://www.serif.com/" style="fill-rule:evenodd;clip-rule:evenodd;stroke-linejoin:round;stroke-miterlimit:2;"><g><g id="logo"><path d="M90.318,94.876l-56.109,-22.232c-7.699,-3.051 -16.409,-2.091 -23.258,2.563c-6.85,4.654 -10.951,12.398 -10.951,20.679l0,390.244c0,10.252 6.26,19.466 15.791,23.242l309.427,122.601l0.009,0.003l0.035,0.014l0.073,0.029c0.062,0.025 0.125,0.049 0.186,0.073l0.059,0.023l0.078,0.029l0.039,0.015l0.05,0.019l0.189,0.071l0.094,0.033l0.03,0.011l0.058,0.021l0.175,0.062l0.093,0.032l0.038,0.014l0.068,0.022l0.16,0.055l0.091,0.03l0.047,0.015l0.078,0.025l0.144,0.047l0.088,0.027l0.057,0.018l0.088,0.026l0.128,0.04l0.085,0.024l0.067,0.021l0.098,0.028l0.114,0.033l0.079,0.021l0.078,0.023l0.107,0.028l0.1,0.028l0.075,0.019l0.088,0.024l0.115,0.029l0.088,0.022l0.069,0.017l0.099,0.025l0.122,0.029l0.077,0.018l0.064,0.015l0.109,0.025l0.128,0.028l0.067,0.016l0.059,0.012l0.119,0.026l0.132,0.027l0.059,0.013l0.055,0.01l0.127,0.026l0.135,0.025l0.053,0.011l0.052,0.009l0.135,0.025l0.136,0.024l0.048,0.008l0.05,0.008l0.141,0.025l0.135,0.021l0.047,0.007l0.048,0.008l0.145,0.022l0.135,0.019l0.044,0.007l0.05,0.006l0.147,0.021l0.132,0.016l0.045,0.006l0.051,0.006l0.148,0.019l0.129,0.014l0.046,0.006l0.054,0.005l0.148,0.016l0.125,0.012l0.048,0.005l0.059,0.005l0.145,0.014l0.12,0.009l0.052,0.005l0.064,0.004l0.141,0.012l0.114,0.007l0.057,0.004l0.071,0.004l0.136,0.009l0.107,0.005l0.062,0.003l0.079,0.004l0.129,0.006l0.101,0.003l0.068,0.003l0.087,0.003l0.122,0.004l0.094,0.001l0.074,0.002l0.096,0.002l0.113,0.002l0.088,0l0.08,0.001l0.21,0l0.08,-0.001l0.088,0l0.113,-0.002l0.096,-0.002l0.074,-0.002l0.094,-0.001l0.122,-0.004l0.087,-0.003l0.068,-0.003l0.101,-0.003l0.129,-0.006l0.079,-0.004l0.062,-0.003l0.107,-0.005l0.136,-0.009l0.071,-0.004l0.057,-0.004l0.114,-0.007l0.141,-0.012l0.064,-0.004l0.052,-0.005l0.12,-0.009l0.145,-0.014l0.059,-0.005l0.048,-0.005l0.125,-0.012l0.148,-0.016l0.054,-0.005l0.046,-0.006l0.129,-0.014l0.148,-0.019l0.051,-0.006l0.045,-0.006l0.132,-0.016l0.147,-0.021l0.05,-0.006l0.044,-0.007l0.135,-0.019l0.145,-0.022l0.048,-0.008l0.047,-0.007l0.135,-0.021l0.141,-0.025l0.05,-0.008l0.048,-0.008l0.136,-0.024l0.135,-0.025l0.052,-0.009l0.053,-0.011l0.135,-0.025l0.127,-0.026l0.055,-0.01l0.059,-0.013l0.132,-0.027l0.119,-0.026l0.059,-0.012l0.067,-0.016l0.128,-0.028l0.109,-0.025l0.064,-0.015l0.077,-0.018l0.122,-0.029l0.099,-0.025l0.069,-0.017l0.088,-0.022l0.115,-0.029l0.088,-0.024l0.075,-0.019l0.1,-0.028l0.107,-0.028l0.078,-0.023l0.079,-0.021l0.114,-0.033l0.098,-0.028l0.067,-0.021l0.085,-0.024l0.128,-0.04l0.088,-0.026l0.057,-0.018l0.088,-0.027l0.144,-0.047l0.078,-0.025l0.047,-0.015l0.091,-0.03l0.16,-0.055l0.068,-0.022l0.038,-0.014l0.093,-0.032l0.175,-0.062l0.058,-0.021l0.03,-0.011l0.094,-0.033l0.189,-0.071l0.05,-0.019l0.039,-0.015l0.078,-0.029l0.059,-0.023c0.061,-0.024 0.124,-0.048 0.186,-0.073l0.073,-0.029l0.035,-0.014l0.009,-0.003l309.427,-122.601c9.531,-3.776 15.791,-12.99 15.791,-23.242l0,-390.244c0,-8.281 -4.101,-16.025 -10.951,-20.679c-6.849,-4.654 -15.559,-5.614 -23.258,-2.563l-56.109,22.232l-235.017,-93.118c-5.916,-2.344 -12.502,-2.344 -18.418,0l-235.017,93.118Zm528.77,374.269l-259.544,102.836l-0,-336.463l259.544,-102.836l-0,336.463Zm-309.544,-233.627l-0,336.463l-259.544,-102.836l-0,-336.463l259.544,102.836Zm-151.357,-113.752l176.357,69.876l176.357,-69.876l-176.357,-69.875l-176.357,69.875Z" style="fill:#1b2b3c;"/></g><g id="typo"><path d="M1037.04,492.4c25.6,-0 49.1,-6.1 70.5,-18.3c21.4,-12.2 38.9,-28.5 52.5,-48.9l52.2,39c-20,27.2 -45.1,48.8 -75.3,64.8c-30.2,16 -63.5,24 -99.9,24c-30,0 -58.2,-5.8 -84.6,-17.4c-26.4,-11.6 -49.4,-27.3 -69,-47.1c-19.6,-19.8 -35.1,-43 -46.5,-69.6c-11.4,-26.6 -17.1,-55.1 -17.1,-85.5c0,-30.4 5.7,-58.9 17.1,-85.5c11.4,-26.6 26.9,-49.8 46.5,-69.6c19.6,-19.8 42.6,-35.5 69,-47.1c26.4,-11.6 54.6,-17.4 84.6,-17.4c36.4,0 69.7,8 99.9,24c30.2,16 55.3,37.6 75.3,64.8l-52.2,39c-13.6,-20.4 -31.1,-36.7 -52.5,-48.9c-21.4,-12.2 -44.9,-18.3 -70.5,-18.3c-20.8,0 -40.3,4.2 -58.5,12.6c-18.2,8.4 -34.1,19.8 -47.7,34.2c-13.6,14.4 -24.4,31.2 -32.4,50.4c-8,19.2 -12,39.8 -12,61.8c0,22 4,42.6 12,61.8c8,19.2 18.8,36 32.4,50.4c13.6,14.4 29.5,25.8 47.7,34.2c18.2,8.4 37.7,12.6 58.5,12.6Z" style="fill:#1b2b3c;fill-rule:nonzero;"/><path d="M1458.24,236.8c22,0 42.7,4.2 62.1,12.6c19.4,8.4 36.4,19.8 51,34.2c14.6,14.4 26.1,31.4 34.5,51c8.4,19.6 12.6,40.4 12.6,62.4l0,155.4l-62.4,0l0,-29.4c-13.6,10.4 -28.6,18.6 -45,24.6c-16.4,6 -34,9 -52.8,9c-22,0 -42.7,-4.2 -62.1,-12.6c-19.4,-8.4 -36.3,-19.8 -50.7,-34.2c-14.4,-14.4 -25.8,-31.3 -34.2,-50.7c-8.4,-19.4 -12.6,-40.1 -12.6,-62.1c0,-22 4.2,-42.8 12.6,-62.4c8.4,-19.6 19.8,-36.6 34.2,-51c14.4,-14.4 31.3,-25.8 50.7,-34.2c19.4,-8.4 40.1,-12.6 62.1,-12.6Zm0,257.4c13.6,-0 26.3,-2.6 38.1,-7.8c11.8,-5.2 22.1,-12.2 30.9,-21c8.8,-8.8 15.8,-19.1 21,-30.9c5.2,-11.8 7.8,-24.3 7.8,-37.5c0,-13.6 -2.6,-26.3 -7.8,-38.1c-5.2,-11.8 -12.2,-22.1 -21,-30.9c-8.8,-8.8 -19.1,-15.8 -30.9,-21c-11.8,-5.2 -24.5,-7.8 -38.1,-7.8c-13.6,-0 -26.3,2.6 -38.1,7.8c-11.8,5.2 -22.1,12.2 -30.9,21c-8.8,8.8 -15.8,19.1 -21,30.9c-5.2,11.8 -7.8,24.5 -7.8,38.1c0,13.2 2.6,25.7 7.8,37.5c5.2,11.8 12.2,22.1 21,30.9c8.8,8.8 19.1,15.8 30.9,21c11.8,5.2 24.5,7.8 38.1,7.8Z" style="fill:#1b2b3c;fill-rule:nonzero;"/><path d="M1871.64,236.8c22,0 42.6,4.1 61.8,12.3c19.2,8.2 36,19.5 50.4,33.9c14.4,14.4 25.7,31.2 33.9,50.4c8.2,19.2 12.3,39.8 12.3,61.8c0,22 -4.1,42.6 -12.3,61.8c-8.2,19.2 -19.5,36 -33.9,50.4c-14.4,14.4 -31.2,25.7 -50.4,33.9c-19.2,8.2 -39.8,12.3 -61.8,12.3c-22,0 -42.6,-4.1 -61.8,-12.3c-19.2,-8.2 -36,-19.5 -50.4,-33.9c-14.4,-14.4 -25.7,-31.2 -33.9,-50.4c-8.2,-19.2 -12.3,-39.8 -12.3,-61.8l0,-370.2l61.2,0l0,244.8c13.6,-10.4 28.6,-18.5 45,-24.3c16.4,-5.8 33.8,-8.7 52.2,-8.7Zm0,255c13.2,0 25.7,-2.5 37.5,-7.5c11.8,-5 22.1,-11.9 30.9,-20.7c8.8,-8.8 15.7,-19.1 20.7,-30.9c5,-11.8 7.5,-24.3 7.5,-37.5c0,-13.2 -2.5,-25.7 -7.5,-37.5c-5,-11.8 -11.9,-22.1 -20.7,-30.9c-8.8,-8.8 -19.1,-15.7 -30.9,-20.7c-11.8,-5 -24.3,-7.5 -37.5,-7.5c-13.2,0 -25.7,2.5 -37.5,7.5c-11.8,5 -22.1,11.9 -30.9,20.7c-8.8,8.8 -15.8,19 -21,30.6c-5.2,11.6 -7.8,24 -7.8,37.2l0,0.6c0,13.2 2.6,25.7 7.8,37.5c5.2,11.8 12.2,22.1 21,30.9c8.8,8.8 19.1,15.7 30.9,20.7c11.8,5 24.3,7.5 37.5,7.5Z" style="fill:#1b2b3c;fill-rule:nonzero;"/><path d="M2134.44,236.2l61.2,-0l0,316.8l-61.2,0l0,-316.8Zm0,-32.4l0,-61.2l61.2,0l0,61.2l-61.2,0Z" style="fill:#1b2b3c;fill-rule:nonzero;"/><path d="M2514.84,257.2c19.2,12.8 34.4,29.3 45.6,49.5c11.2,20.2 16.8,42.3 16.8,66.3l0,180.6l-62.4,0l0,-180.6c0,-10.4 -2,-20.3 -6,-29.7c-4,-9.4 -9.5,-17.6 -16.5,-24.6c-7,-7 -15.1,-12.5 -24.3,-16.5c-9.2,-4 -19,-6 -29.4,-6c-10.4,0 -20.3,2 -29.7,6c-9.4,4 -17.5,9.5 -24.3,16.5c-6.8,7 -12.2,15.2 -16.2,24.6c-4,9.4 -6,19.3 -6,29.7l0,180.6l-62.4,0l0,-319.2l62.4,0l0,22.8c10.8,-7.2 22.7,-12.8 35.7,-16.8c13,-4 26.5,-6 40.5,-6c14,0 27.5,2 40.5,6c13,4 24.9,9.6 35.7,16.8Z" style="fill:#1b2b3c;fill-rule:nonzero;"/><path d="M2987.04,415.6l-251.4,0c2.4,10.8 6.5,20.9 12.3,30.3c5.8,9.4 12.9,17.5 21.3,24.3c8.4,6.8 17.8,12.1 28.2,15.9c10.4,3.8 21.4,5.7 33,5.7c14,0 27.1,-2.8 39.3,-8.4c12.2,-5.6 22.9,-13.4 32.1,-23.4l72.6,0c-2.4,6 -5.3,11.7 -8.7,17.1c-3.4,5.4 -7.1,10.7 -11.1,15.9c-14.4,18.4 -32.4,33.1 -54,44.1c-21.6,11 -45,16.5 -70.2,16.5c-22,0 -42.6,-4.1 -61.8,-12.3c-19.2,-8.2 -36,-19.5 -50.4,-33.9c-14.4,-14.4 -25.7,-31.2 -33.9,-50.4c-8.2,-19.2 -12.3,-39.8 -12.3,-61.8c0,-22 4.1,-42.6 12.3,-61.8c8.2,-19.2 19.5,-36 33.9,-50.4c14.4,-14.4 31.2,-25.7 50.4,-33.9c19.2,-8.2 39.8,-12.3 61.8,-12.3c25.2,0 48.6,5.5 70.2,16.5c21.6,11 39.6,25.9 54,44.7c13.2,16 22.8,34.8 28.8,56.4c3.6,12.8 5.4,26.4 5.4,40.8c0,7.2 -0.6,14 -1.8,20.4Zm-156.6,-117c-19.6,-0 -37.1,5.1 -52.5,15.3c-15.4,10.2 -27.1,23.7 -35.1,40.5l175.2,-0c-2,-3.2 -3.9,-6.4 -5.7,-9.6c-1.8,-3.2 -3.7,-6.2 -5.7,-9c-9.2,-11.6 -20.4,-20.7 -33.6,-27.3c-13.2,-6.6 -27.4,-9.9 -42.6,-9.9Z" style="fill:#1b2b3c;fill-rule:nonzero;"/><path d="M3261.24,149.2l-0,61.2l-57.6,-0l-0,343.2l-61.8,-0l-0,-343.2l-58.2,-0l-0,-61.2l58.2,-0l-0,-118.2l61.8,-0l-0,118.2l57.6,-0Z" style="fill:#1b2b3c;fill-rule:nonzero;"/></g></g></svg>